<?xml version="1.0" encoding="UTF-8"?>
<svg width="24px" height="24px" viewBox="0 0 24 24" version="1.1" xmlns="http://www.w3.org/2000/svg">
    <g stroke="none" stroke-width="1" fill="none" fill-rule="evenodd">
        <path d="M12,2 C6.48,2 2,6.48 2,12 C2,17.52 6.48,22 12,22 C17.52,22 22,17.52 22,12 C22,6.48 17.52,2 12,2 Z M12,20 C7.59,20 4,16.41 4,12 C4,7.59 7.59,4 12,4 C16.41,4 20,7.59 20,12 C20,16.41 16.41,20 12,20 Z" fill="#000000" fill-rule="nonzero"/>
        <path d="M12,6 C11.45,6 11,6.45 11,7 L11,13 C11,13.55 11.45,14 12,14 C12.55,14 13,13.55 13,13 L13,7 C13,6.45 12.55,6 12,6 Z" fill="#000000" fill-rule="nonzero"/>
        <path d="M12,16 C12.55,16 13,16.45 13,17 C13,17.55 12.55,18 12,18 C11.45,18 11,17.55 11,17 C11,16.45 11.45,16 12,16 Z" fill="#000000" fill-rule="nonzero"/>
        <path d="M7,12 C7,11.45 6.55,11 6,11 C5.45,11 5,11.45 5,12 C5,12.55 5.45,13 6,13 C6.55,13 7,12.55 7,12 Z" fill="#000000" fill-rule="nonzero"/>
        <path d="M19,12 C19,11.45 18.55,11 18,11 C17.45,11 17,11.45 17,12 C17,12.55 17.45,13 18,13 C18.55,13 19,12.55 19,12 Z" fill="#000000" fill-rule="nonzero"/>
    </g>
</svg> 